<?xml version="1.0" encoding="UTF-8"?>
<svg width="1200" height="800" viewBox="0 0 1200 800" xmlns="http://www.w3.org/2000/svg">
<style>
  .node-label { font: 12px Arial, sans-serif; }
  .inlet { fill: #4CAF50; }
  .junction { fill: #2196F3; }
  .outfall { fill: #F44336; }
  .conduit { stroke: #666; fill: none; }
  .hgl-line { stroke: #2196F3; stroke-width: 2; fill: none; }
  .egl-line { stroke: #FF9800; stroke-width: 2; fill: none; }
  .ground-line { stroke: #8B4513; stroke-width: 2; fill: none; }
  .pipe-line { stroke: #000; stroke-width: 3; fill: none; }
</style>
<line x1="100" y1="800" x2="600" y2="800" stroke="#666" stroke-width="2"/>
<polyline points="425.9369221296335,795.773817382593 435,800 425.9369221296335,804.226182617407" fill="none" stroke="#666" stroke-width="2"/>
<line x1="350" y1="800" x2="600" y2="800" stroke="#666" stroke-width="2"/>
<polyline points="508.4369221296335,795.773817382593 517.5,800 508.4369221296335,804.226182617407" fill="none" stroke="#666" stroke-width="2"/>
<line x1="600" y1="800" x2="850.0000000000001" y2="800" stroke="#666" stroke-width="2"/>
<polyline points="758.4369221296336,795.773817382593 767.5000000000001,800 758.4369221296336,804.226182617407" fill="none" stroke="#666" stroke-width="2"/>
<line x1="850.0000000000001" y1="800" x2="1100" y2="800" stroke="#666" stroke-width="2"/>
<polyline points="1008.4369221296336,795.773817382593 1017.5,800 1008.4369221296336,804.226182617407" fill="none" stroke="#666" stroke-width="2"/>
<circle cx="100" cy="800" r="8" fill="#4CAF50" stroke="#2E7D32" stroke-width="2"/>
<text x="100" y="787" font-size="11" text-anchor="middle" fill="#000" font-family="Arial, sans-serif">IN-001</text>
<circle cx="350" cy="800" r="8" fill="#4CAF50" stroke="#2E7D32" stroke-width="2"/>
<text x="350" y="787" font-size="11" text-anchor="middle" fill="#000" font-family="Arial, sans-serif">IN-002</text>
<circle cx="600" cy="800" r="8" fill="#2196F3" stroke="#1565C0" stroke-width="2"/>
<text x="600" y="787" font-size="11" text-anchor="middle" fill="#000" font-family="Arial, sans-serif">MH-001</text>
<circle cx="850.0000000000001" cy="800" r="8" fill="#2196F3" stroke="#1565C0" stroke-width="2"/>
<text x="850.0000000000001" y="787" font-size="11" text-anchor="middle" fill="#000" font-family="Arial, sans-serif">MH-002</text>
<circle cx="1100" cy="800" r="8" fill="#F44336" stroke="#C62828" stroke-width="2"/>
<text x="1100" y="787" font-size="11" text-anchor="middle" fill="#000" font-family="Arial, sans-serif">OUT-001</text>
</svg>
