<?xml version="1.0" encoding="UTF-8"?>
<svg width="1400" height="600" viewBox="0 0 1400 600" xmlns="http://www.w3.org/2000/svg">
<style>
  .node-label { font: 12px Arial, sans-serif; }
  .inlet { fill: #4CAF50; }
  .junction { fill: #2196F3; }
  .outfall { fill: #F44336; }
  .conduit { stroke: #666; fill: none; }
  .hgl-line { stroke: #2196F3; stroke-width: 2; fill: none; }
  .egl-line { stroke: #FF9800; stroke-width: 2; fill: none; }
  .ground-line { stroke: #8B4513; stroke-width: 2; fill: none; }
  .pipe-line { stroke: #000; stroke-width: 3; fill: none; }
</style>
<text x="700" y="25" font-size="16" text-anchor="middle" fill="#000" font-family="Arial, sans-serif">Profile View - HGL/EGL Elevations</text>
<line x1="60" y1="540" x2="1340" y2="540" stroke="#000" stroke-width="2"/>
<line x1="60" y1="540" x2="60" y2="100" stroke="#000" stroke-width="2"/>
<text x="15" y="320" font-size="12" text-anchor="middle" fill="#000" font-family="Arial, sans-serif">Elevation (ft)</text>
<text x="700" y="585" font-size="12" text-anchor="middle" fill="#000" font-family="Arial, sans-serif">Station (ft)</text>
<line x1="60" y1="540" x2="1340" y2="540" stroke="#ddd" stroke-width="1"/>
<text x="50" y="544" font-size="10" text-anchor="end" fill="#000" font-family="Arial, sans-serif">85.8</text>
<line x1="60" y1="495.99999999999994" x2="1340" y2="495.99999999999994" stroke="#ddd" stroke-width="1"/>
<text x="50" y="499.99999999999994" font-size="10" text-anchor="end" fill="#000" font-family="Arial, sans-serif">88.4</text>
<line x1="60" y1="451.9999999999999" x2="1340" y2="451.9999999999999" stroke="#ddd" stroke-width="1"/>
<text x="50" y="455.9999999999999" font-size="10" text-anchor="end" fill="#000" font-family="Arial, sans-serif">91.0</text>
<line x1="60" y1="408.0000000000001" x2="1340" y2="408.0000000000001" stroke="#ddd" stroke-width="1"/>
<text x="50" y="412.0000000000001" font-size="10" text-anchor="end" fill="#000" font-family="Arial, sans-serif">93.7</text>
<line x1="60" y1="364" x2="1340" y2="364" stroke="#ddd" stroke-width="1"/>
<text x="50" y="368" font-size="10" text-anchor="end" fill="#000" font-family="Arial, sans-serif">96.3</text>
<line x1="60" y1="320" x2="1340" y2="320" stroke="#ddd" stroke-width="1"/>
<text x="50" y="324" font-size="10" text-anchor="end" fill="#000" font-family="Arial, sans-serif">98.9</text>
<line x1="60" y1="275.99999999999994" x2="1340" y2="275.99999999999994" stroke="#ddd" stroke-width="1"/>
<text x="50" y="279.99999999999994" font-size="10" text-anchor="end" fill="#000" font-family="Arial, sans-serif">101.5</text>
<line x1="60" y1="232.00000000000017" x2="1340" y2="232.00000000000017" stroke="#ddd" stroke-width="1"/>
<text x="50" y="236.00000000000017" font-size="10" text-anchor="end" fill="#000" font-family="Arial, sans-serif">104.1</text>
<line x1="60" y1="188.00000000000006" x2="1340" y2="188.00000000000006" stroke="#ddd" stroke-width="1"/>
<text x="50" y="192.00000000000006" font-size="10" text-anchor="end" fill="#000" font-family="Arial, sans-serif">106.7</text>
<line x1="60" y1="144.00000000000006" x2="1340" y2="144.00000000000006" stroke="#ddd" stroke-width="1"/>
<text x="50" y="148.00000000000006" font-size="10" text-anchor="end" fill="#000" font-family="Arial, sans-serif">109.3</text>
<line x1="60" y1="100" x2="1340" y2="100" stroke="#ddd" stroke-width="1"/>
<text x="50" y="104" font-size="10" text-anchor="end" fill="#000" font-family="Arial, sans-serif">111.9</text>
<polyline points="60,292.59923146153153 380,334.7460518358919 735.5555555555555,385.32223628512435 1055.5555555555557,435.89842073435676 1340,503.33333333333337" fill="none" stroke="#000" stroke-width="3"/>
<polyline points="60,208.30559071281078 380,250.45241108717113 735.5555555555555,301.0285955364036 1055.5555555555557,351.604779985636" fill="none" stroke="#8B4513" stroke-width="2"/>
<polyline points="60,155.13178836638775 380,210.45183233100113 380,220.13340800056653 735.5555555555555,284.1390337439869 735.5555555555555,286.84806822775727 1055.5555555555557,345.6371433965558 1055.5555555555557,354.77858487282947 1340,444.31058061554927" fill="none" stroke="#2196F3" stroke-width="2.5"/>
<polyline points="60,136.66666666666663 380,192.3378241330687 380,202.01939980263387 735.5555555555555,267.7206063841272 735.5555555555555,270.4296408678976 1055.5555555555557,324.79499432924575 1055.5555555555557,333.93643580551935 1340,444.31058061554927" fill="none" stroke="#FF9800" stroke-width="2.5"/>
<circle cx="60" cy="292.59923146153153" r="5" fill="#4CAF50" stroke="#000" stroke-width="2"/>
<text x="60" y="282.59923146153153" font-size="10" text-anchor="middle" fill="#000" font-family="Arial, sans-serif">IN-001</text>
<text x="60" y="560" font-size="9" text-anchor="middle" fill="#666" font-family="Arial, sans-serif">0</text>
<rect x="370" y="250.45241108717113" width="20" height="84.29364074872075" fill="none" stroke="#1565C0" stroke-width="2"/>
<text x="380" y="240.45241108717113" font-size="10" text-anchor="middle" fill="#000" font-family="Arial, sans-serif">MH-001</text>
<text x="380" y="560" font-size="9" text-anchor="middle" fill="#666" font-family="Arial, sans-serif">225</text>
<rect x="725.5555555555555" y="301.0285955364036" width="20" height="84.29364074872075" fill="none" stroke="#1565C0" stroke-width="2"/>
<text x="735.5555555555555" y="291.0285955364036" font-size="10" text-anchor="middle" fill="#000" font-family="Arial, sans-serif">MH-002</text>
<text x="735.5555555555555" y="560" font-size="9" text-anchor="middle" fill="#666" font-family="Arial, sans-serif">475</text>
<rect x="1045.5555555555557" y="351.604779985636" width="20" height="84.29364074872075" fill="none" stroke="#1565C0" stroke-width="2"/>
<text x="1055.5555555555557" y="341.604779985636" font-size="10" text-anchor="middle" fill="#000" font-family="Arial, sans-serif">MH-003</text>
<text x="1055.5555555555557" y="560" font-size="9" text-anchor="middle" fill="#666" font-family="Arial, sans-serif">700</text>
<circle cx="1340" cy="503.33333333333337" r="5" fill="#F44336" stroke="#000" stroke-width="2"/>
<text x="1340" y="493.33333333333337" font-size="10" text-anchor="middle" fill="#000" font-family="Arial, sans-serif">OUT-001</text>
<text x="1340" y="560" font-size="9" text-anchor="middle" fill="#666" font-family="Arial, sans-serif">900</text>
<text x="1250" y="60" font-size="12" text-anchor="start" fill="#000" font-family="Arial, sans-serif">Legend:</text>
<line x1="1250" y1="80" x2="1280" y2="80" stroke="#FF9800" stroke-width="2"/>
<text x="1290" y="84" font-size="11" text-anchor="start" fill="#000" font-family="Arial, sans-serif">EGL</text>
<line x1="1250" y1="100" x2="1280" y2="100" stroke="#2196F3" stroke-width="2"/>
<text x="1290" y="104" font-size="11" text-anchor="start" fill="#000" font-family="Arial, sans-serif">HGL</text>
<line x1="1250" y1="120" x2="1280" y2="120" stroke="#8B4513" stroke-width="2"/>
<text x="1290" y="124" font-size="11" text-anchor="start" fill="#000" font-family="Arial, sans-serif">Ground</text>
<line x1="1250" y1="140" x2="1280" y2="140" stroke="#000" stroke-width="3"/>
<text x="1290" y="144" font-size="11" text-anchor="start" fill="#000" font-family="Arial, sans-serif">Pipe Invert</text>
</svg>
