<?xml version="1.0" encoding="UTF-8"?>
<svg width="1400" height="600" viewBox="0 0 1400 600" xmlns="http://www.w3.org/2000/svg">
<style>
  .node-label { font: 12px Arial, sans-serif; }
  .inlet { fill: #4CAF50; }
  .junction { fill: #2196F3; }
  .outfall { fill: #F44336; }
  .conduit { stroke: #666; fill: none; }
  .hgl-line { stroke: #2196F3; stroke-width: 2; fill: none; }
  .egl-line { stroke: #FF9800; stroke-width: 2; fill: none; }
  .ground-line { stroke: #8B4513; stroke-width: 2; fill: none; }
  .pipe-line { stroke: #000; stroke-width: 3; fill: none; }
</style>
<text x="700" y="25" font-size="16" text-anchor="middle" fill="#000" font-family="Arial, sans-serif">Profile View - HGL/EGL Elevations</text>
<line x1="60" y1="540" x2="1340" y2="540" stroke="#000" stroke-width="2"/>
<line x1="60" y1="540" x2="60" y2="100" stroke="#000" stroke-width="2"/>
<text x="15" y="320" font-size="12" text-anchor="middle" fill="#000" font-family="Arial, sans-serif">Elevation (ft)</text>
<text x="700" y="585" font-size="12" text-anchor="middle" fill="#000" font-family="Arial, sans-serif">Station (ft)</text>
<line x1="60" y1="540" x2="1340" y2="540" stroke="#ddd" stroke-width="0.5"/>
<text x="50" y="544" font-size="10" text-anchor="end" fill="#000" font-family="Arial, sans-serif">82.5</text>
<line x1="60" y1="496.00000000000006" x2="1340" y2="496.00000000000006" stroke="#ddd" stroke-width="0.5"/>
<text x="50" y="500.00000000000006" font-size="10" text-anchor="end" fill="#000" font-family="Arial, sans-serif">85.5</text>
<line x1="60" y1="452.0000000000001" x2="1340" y2="452.0000000000001" stroke="#ddd" stroke-width="0.5"/>
<text x="50" y="456.0000000000001" font-size="10" text-anchor="end" fill="#000" font-family="Arial, sans-serif">88.5</text>
<line x1="60" y1="407.9999999999999" x2="1340" y2="407.9999999999999" stroke="#ddd" stroke-width="0.5"/>
<text x="50" y="411.9999999999999" font-size="10" text-anchor="end" fill="#000" font-family="Arial, sans-serif">91.5</text>
<line x1="60" y1="364" x2="1340" y2="364" stroke="#ddd" stroke-width="0.5"/>
<text x="50" y="368" font-size="10" text-anchor="end" fill="#000" font-family="Arial, sans-serif">94.5</text>
<line x1="60" y1="320" x2="1340" y2="320" stroke="#ddd" stroke-width="0.5"/>
<text x="50" y="324" font-size="10" text-anchor="end" fill="#000" font-family="Arial, sans-serif">97.6</text>
<line x1="60" y1="276.00000000000006" x2="1340" y2="276.00000000000006" stroke="#ddd" stroke-width="0.5"/>
<text x="50" y="280.00000000000006" font-size="10" text-anchor="end" fill="#000" font-family="Arial, sans-serif">100.6</text>
<line x1="60" y1="232.00000000000006" x2="1340" y2="232.00000000000006" stroke="#ddd" stroke-width="0.5"/>
<text x="50" y="236.00000000000006" font-size="10" text-anchor="end" fill="#000" font-family="Arial, sans-serif">103.6</text>
<line x1="60" y1="187.99999999999994" x2="1340" y2="187.99999999999994" stroke="#ddd" stroke-width="0.5"/>
<text x="50" y="191.99999999999994" font-size="10" text-anchor="end" fill="#000" font-family="Arial, sans-serif">106.6</text>
<line x1="60" y1="143.99999999999994" x2="1340" y2="143.99999999999994" stroke="#ddd" stroke-width="0.5"/>
<text x="50" y="147.99999999999994" font-size="10" text-anchor="end" fill="#000" font-family="Arial, sans-serif">109.6</text>
<line x1="60" y1="100" x2="1340" y2="100" stroke="#ddd" stroke-width="0.5"/>
<text x="50" y="104" font-size="10" text-anchor="end" fill="#000" font-family="Arial, sans-serif">112.6</text>
<polyline points="60,277.02084496482246 486.66666666666663,357.32527632139085 913.3333333333333,423.028901976765 1340,503.33333333333337" fill="none" stroke="#000" stroke-width="3"/>
<polyline points="60,255.11963641303106 486.66666666666663,328.12366491900235 913.3333333333333,386.52688772377934 1340,466.8313190803478" fill="none" stroke="#666" stroke-width="1.5" stroke-dasharray="4 2"/>
<polyline points="60,204.01681645885117 486.66666666666663,284.3212478154196 913.3333333333333,350.02487347079375 1340,503.33333333333337" fill="none" stroke="#8B4513" stroke-width="2"/>
<polyline points="60,152.841133170435 486.66666666666663,281.17705658468236 486.66666666666663,305.02604172116156 913.3333333333333,376.3071698115653 1340,488.7325276321391" fill="none" stroke="#2196F3" stroke-width="2.5" stroke-dasharray="8 3 2 3"/>
<polyline points="60,136.66666666666657 486.66666666666663,261.5772335989493 486.66666666666663,285.4262187354285 913.3333333333333,354.87101817674716 1340,488.7325276321391" fill="none" stroke="#FF9800" stroke-width="2.5" stroke-dasharray="8 3 2 3"/>
<circle cx="60" cy="277.02084496482246" r="5" fill="#4CAF50" stroke="#000" stroke-width="2"/>
<text x="60" y="267.02084496482246" font-size="10" text-anchor="middle" fill="#000" font-family="Arial, sans-serif">IN-001</text>
<text x="60" y="560" font-size="9" text-anchor="middle" fill="#666" font-family="Arial, sans-serif">0</text>
<rect x="476.66666666666663" y="284.3212478154196" width="20" height="73.00402850597123" fill="none" stroke="#1565C0" stroke-width="2"/>
<text x="486.66666666666663" y="274.3212478154196" font-size="10" text-anchor="middle" fill="#000" font-family="Arial, sans-serif">MH-001</text>
<text x="486.66666666666663" y="560" font-size="9" text-anchor="middle" fill="#666" font-family="Arial, sans-serif">120</text>
<rect x="903.3333333333333" y="350.02487347079375" width="20" height="73.00402850597123" fill="none" stroke="#1565C0" stroke-width="2"/>
<text x="913.3333333333333" y="340.02487347079375" font-size="10" text-anchor="middle" fill="#000" font-family="Arial, sans-serif">MH-002</text>
<text x="913.3333333333333" y="560" font-size="9" text-anchor="middle" fill="#666" font-family="Arial, sans-serif">240</text>
<circle cx="1340" cy="503.33333333333337" r="5" fill="#F44336" stroke="#000" stroke-width="2"/>
<text x="1340" y="493.33333333333337" font-size="10" text-anchor="middle" fill="#000" font-family="Arial, sans-serif">OUT-001</text>
<text x="1340" y="560" font-size="9" text-anchor="middle" fill="#666" font-family="Arial, sans-serif">360</text>
<text x="1250" y="60" font-size="12" text-anchor="start" fill="#000" font-family="Arial, sans-serif">Legend:</text>
<line x1="1250" y1="80" x2="1280" y2="80" stroke="#FF9800" stroke-width="2"/>
<text x="1290" y="84" font-size="11" text-anchor="start" fill="#000" font-family="Arial, sans-serif">EGL</text>
<line x1="1250" y1="100" x2="1280" y2="100" stroke="#2196F3" stroke-width="2"/>
<text x="1290" y="104" font-size="11" text-anchor="start" fill="#000" font-family="Arial, sans-serif">HGL</text>
<line x1="1250" y1="120" x2="1280" y2="120" stroke="#8B4513" stroke-width="2"/>
<text x="1290" y="124" font-size="11" text-anchor="start" fill="#000" font-family="Arial, sans-serif">Ground</text>
<line x1="1250" y1="140" x2="1280" y2="140" stroke="#000" stroke-width="3"/>
<text x="1290" y="144" font-size="11" text-anchor="start" fill="#000" font-family="Arial, sans-serif">Pipe Invert</text>
</svg>
