<?xml version="1.0" encoding="UTF-8"?>
<svg width="1400" height="600" viewBox="0 0 1400 600" xmlns="http://www.w3.org/2000/svg">
<style>
  .node-label { font: 12px Arial, sans-serif; }
  .inlet { fill: #4CAF50; }
  .junction { fill: #2196F3; }
  .outfall { fill: #F44336; }
  .conduit { stroke: #666; fill: none; }
  .hgl-line { stroke: #2196F3; stroke-width: 2; fill: none; }
  .egl-line { stroke: #FF9800; stroke-width: 2; fill: none; }
  .ground-line { stroke: #8B4513; stroke-width: 2; fill: none; }
  .pipe-line { stroke: #000; stroke-width: 3; fill: none; }
</style>
<text x="700" y="25" font-size="16" text-anchor="middle" fill="#000" font-family="Arial, sans-serif">Profile View - HGL/EGL Elevations</text>
<line x1="60" y1="540" x2="1340" y2="540" stroke="#000" stroke-width="2"/>
<line x1="60" y1="540" x2="60" y2="100" stroke="#000" stroke-width="2"/>
<text x="15" y="320" font-size="12" text-anchor="middle" fill="#000" font-family="Arial, sans-serif">Elevation (ft)</text>
<text x="700" y="585" font-size="12" text-anchor="middle" fill="#000" font-family="Arial, sans-serif">Station (ft)</text>
<line x1="60" y1="540" x2="1340" y2="540" stroke="#ddd" stroke-width="1"/>
<text x="50" y="544" font-size="10" text-anchor="end" fill="#000" font-family="Arial, sans-serif">82.6</text>
<line x1="60" y1="495.9999999999999" x2="1340" y2="495.9999999999999" stroke="#ddd" stroke-width="1"/>
<text x="50" y="499.9999999999999" font-size="10" text-anchor="end" fill="#000" font-family="Arial, sans-serif">85.5</text>
<line x1="60" y1="452.00000000000006" x2="1340" y2="452.00000000000006" stroke="#ddd" stroke-width="1"/>
<text x="50" y="456.00000000000006" font-size="10" text-anchor="end" fill="#000" font-family="Arial, sans-serif">88.4</text>
<line x1="60" y1="407.99999999999994" x2="1340" y2="407.99999999999994" stroke="#ddd" stroke-width="1"/>
<text x="50" y="411.99999999999994" font-size="10" text-anchor="end" fill="#000" font-family="Arial, sans-serif">91.3</text>
<line x1="60" y1="363.9999999999999" x2="1340" y2="363.9999999999999" stroke="#ddd" stroke-width="1"/>
<text x="50" y="367.9999999999999" font-size="10" text-anchor="end" fill="#000" font-family="Arial, sans-serif">94.2</text>
<line x1="60" y1="320" x2="1340" y2="320" stroke="#ddd" stroke-width="1"/>
<text x="50" y="324" font-size="10" text-anchor="end" fill="#000" font-family="Arial, sans-serif">97.1</text>
<line x1="60" y1="276.0000000000001" x2="1340" y2="276.0000000000001" stroke="#ddd" stroke-width="1"/>
<text x="50" y="280.0000000000001" font-size="10" text-anchor="end" fill="#000" font-family="Arial, sans-serif">99.9</text>
<line x1="60" y1="232" x2="1340" y2="232" stroke="#ddd" stroke-width="1"/>
<text x="50" y="236" font-size="10" text-anchor="end" fill="#000" font-family="Arial, sans-serif">102.8</text>
<line x1="60" y1="188" x2="1340" y2="188" stroke="#ddd" stroke-width="1"/>
<text x="50" y="192" font-size="10" text-anchor="end" fill="#000" font-family="Arial, sans-serif">105.7</text>
<line x1="60" y1="143.9999999999999" x2="1340" y2="143.9999999999999" stroke="#ddd" stroke-width="1"/>
<text x="50" y="147.9999999999999" font-size="10" text-anchor="end" fill="#000" font-family="Arial, sans-serif">108.6</text>
<line x1="60" y1="100" x2="1340" y2="100" stroke="#ddd" stroke-width="1"/>
<text x="50" y="104" font-size="10" text-anchor="end" fill="#000" font-family="Arial, sans-serif">111.5</text>
<polyline points="60,267.63525824147223 486.66666666666663,351.2700590805197 913.3333333333333,419.6985324942858 1340,503.3333333333333" fill="none" stroke="#000" stroke-width="3"/>
<polyline points="60,191.60362111506538 486.66666666666663,275.2384219541129 913.3333333333333,343.666895367879" fill="none" stroke="#8B4513" stroke-width="2"/>
<polyline points="60,153.51191744385017 486.66666666666663,287.17016287226903 486.66666666666663,312.0082083998735 913.3333333333333,386.24549332569393 1340,503.3333333333333" fill="none" stroke="#2196F3" stroke-width="2.5"/>
<polyline points="60,136.66666666666669 486.66666666666663,266.75749990708516 486.66666666666663,291.5955454346897 913.3333333333333,363.9203458531566 1340,503.3333333333333" fill="none" stroke="#FF9800" stroke-width="2.5"/>
<circle cx="60" cy="267.63525824147223" r="5" fill="#4CAF50" stroke="#000" stroke-width="2"/>
<text x="60" y="257.63525824147223" font-size="10" text-anchor="middle" fill="#000" font-family="Arial, sans-serif">IN-001</text>
<text x="60" y="560" font-size="9" text-anchor="middle" fill="#666" font-family="Arial, sans-serif">0</text>
<rect x="476.66666666666663" y="275.2384219541129" width="20" height="76.03163712640679" fill="#E3F2FD" stroke="#1565C0" stroke-width="2"/>
<text x="486.66666666666663" y="265.2384219541129" font-size="10" text-anchor="middle" fill="#000" font-family="Arial, sans-serif">MH-001</text>
<text x="486.66666666666663" y="560" font-size="9" text-anchor="middle" fill="#666" font-family="Arial, sans-serif">120</text>
<rect x="903.3333333333333" y="343.666895367879" width="20" height="76.03163712640679" fill="#E3F2FD" stroke="#1565C0" stroke-width="2"/>
<text x="913.3333333333333" y="333.666895367879" font-size="10" text-anchor="middle" fill="#000" font-family="Arial, sans-serif">MH-002</text>
<text x="913.3333333333333" y="560" font-size="9" text-anchor="middle" fill="#666" font-family="Arial, sans-serif">240</text>
<circle cx="1340" cy="503.3333333333333" r="5" fill="#F44336" stroke="#000" stroke-width="2"/>
<text x="1340" y="493.3333333333333" font-size="10" text-anchor="middle" fill="#000" font-family="Arial, sans-serif">OUT-001</text>
<text x="1340" y="560" font-size="9" text-anchor="middle" fill="#666" font-family="Arial, sans-serif">360</text>
<text x="1250" y="60" font-size="12" text-anchor="start" fill="#000" font-family="Arial, sans-serif">Legend:</text>
<line x1="1250" y1="80" x2="1280" y2="80" stroke="#FF9800" stroke-width="2"/>
<text x="1290" y="84" font-size="11" text-anchor="start" fill="#000" font-family="Arial, sans-serif">EGL</text>
<line x1="1250" y1="100" x2="1280" y2="100" stroke="#2196F3" stroke-width="2"/>
<text x="1290" y="104" font-size="11" text-anchor="start" fill="#000" font-family="Arial, sans-serif">HGL</text>
<line x1="1250" y1="120" x2="1280" y2="120" stroke="#8B4513" stroke-width="2"/>
<text x="1290" y="124" font-size="11" text-anchor="start" fill="#000" font-family="Arial, sans-serif">Ground</text>
<line x1="1250" y1="140" x2="1280" y2="140" stroke="#000" stroke-width="3"/>
<text x="1290" y="144" font-size="11" text-anchor="start" fill="#000" font-family="Arial, sans-serif">Pipe Invert</text>
</svg>
