<?xml version="1.0" encoding="UTF-8"?>
<svg width="1400" height="600" viewBox="0 0 1400 600" xmlns="http://www.w3.org/2000/svg">
<style>
  .node-label { font: 12px Arial, sans-serif; }
  .inlet { fill: #4CAF50; }
  .junction { fill: #2196F3; }
  .outfall { fill: #F44336; }
  .conduit { stroke: #666; fill: none; }
  .hgl-line { stroke: #2196F3; stroke-width: 2; fill: none; }
  .egl-line { stroke: #FF9800; stroke-width: 2; fill: none; }
  .ground-line { stroke: #8B4513; stroke-width: 2; fill: none; }
  .pipe-line { stroke: #000; stroke-width: 3; fill: none; }
</style>
<text x="700" y="25" font-size="16" text-anchor="middle" fill="#000" font-family="Arial, sans-serif">Profile View - HGL/EGL Elevations</text>
<line x1="60" y1="540" x2="1340" y2="540" stroke="#000" stroke-width="2"/>
<line x1="60" y1="540" x2="60" y2="100" stroke="#000" stroke-width="2"/>
<text x="15" y="320" font-size="12" text-anchor="middle" fill="#000" font-family="Arial, sans-serif">Elevation (ft)</text>
<text x="700" y="585" font-size="12" text-anchor="middle" fill="#000" font-family="Arial, sans-serif">Station (ft)</text>
<line x1="60" y1="540" x2="1340" y2="540" stroke="#ddd" stroke-width="1"/>
<text x="50" y="544" font-size="10" text-anchor="end" fill="#000" font-family="Arial, sans-serif">82.8</text>
<line x1="60" y1="496.00000000000006" x2="1340" y2="496.00000000000006" stroke="#ddd" stroke-width="1"/>
<text x="50" y="500.00000000000006" font-size="10" text-anchor="end" fill="#000" font-family="Arial, sans-serif">85.4</text>
<line x1="60" y1="451.9999999999999" x2="1340" y2="451.9999999999999" stroke="#ddd" stroke-width="1"/>
<text x="50" y="455.9999999999999" font-size="10" text-anchor="end" fill="#000" font-family="Arial, sans-serif">88.1</text>
<line x1="60" y1="408" x2="1340" y2="408" stroke="#ddd" stroke-width="1"/>
<text x="50" y="412" font-size="10" text-anchor="end" fill="#000" font-family="Arial, sans-serif">90.8</text>
<line x1="60" y1="364" x2="1340" y2="364" stroke="#ddd" stroke-width="1"/>
<text x="50" y="368" font-size="10" text-anchor="end" fill="#000" font-family="Arial, sans-serif">93.5</text>
<line x1="60" y1="320.0000000000001" x2="1340" y2="320.0000000000001" stroke="#ddd" stroke-width="1"/>
<text x="50" y="324.0000000000001" font-size="10" text-anchor="end" fill="#000" font-family="Arial, sans-serif">96.2</text>
<line x1="60" y1="275.99999999999994" x2="1340" y2="275.99999999999994" stroke="#ddd" stroke-width="1"/>
<text x="50" y="279.99999999999994" font-size="10" text-anchor="end" fill="#000" font-family="Arial, sans-serif">98.9</text>
<line x1="60" y1="232" x2="1340" y2="232" stroke="#ddd" stroke-width="1"/>
<text x="50" y="236" font-size="10" text-anchor="end" fill="#000" font-family="Arial, sans-serif">101.6</text>
<line x1="60" y1="187.9999999999999" x2="1340" y2="187.9999999999999" stroke="#ddd" stroke-width="1"/>
<text x="50" y="191.9999999999999" font-size="10" text-anchor="end" fill="#000" font-family="Arial, sans-serif">104.3</text>
<line x1="60" y1="143.99999999999994" x2="1340" y2="143.99999999999994" stroke="#ddd" stroke-width="1"/>
<text x="50" y="147.99999999999994" font-size="10" text-anchor="end" fill="#000" font-family="Arial, sans-serif">107.0</text>
<line x1="60" y1="100" x2="1340" y2="100" stroke="#ddd" stroke-width="1"/>
<text x="50" y="104" font-size="10" text-anchor="end" fill="#000" font-family="Arial, sans-serif">109.7</text>
<polyline points="60,250.50889971598536 486.66666666666663,340.2207955156895 913.3333333333333,413.6214375336292 1340,503.3333333333333" fill="none" stroke="#000" stroke-width="3"/>
<polyline points="60,168.95263080716342 486.66666666666663,258.6645266068675 913.3333333333333,332.06516862480726" fill="none" stroke="#8B4513" stroke-width="2"/>
<polyline points="60,154.73593170085826 486.66666666666663,271.4632549737668 913.3333333333333,377.7376244083761 1340,503.3333333333333" fill="none" stroke="#2196F3" stroke-width="2.5"/>
<polyline points="60,136.66666666666669 486.66666666666663,249.56736146346537 913.3333333333333,353.79028091408503 1340,503.3333333333333" fill="none" stroke="#FF9800" stroke-width="2.5"/>
<circle cx="60" cy="250.50889971598536" r="4" fill="#000" stroke="#000" stroke-width="1"/>
<text x="60" y="240.50889971598536" font-size="10" text-anchor="middle" fill="#000" font-family="Arial, sans-serif">IN-001</text>
<text x="60" y="560" font-size="9" text-anchor="middle" fill="#666" font-family="Arial, sans-serif">0</text>
<circle cx="486.66666666666663" cy="340.2207955156895" r="4" fill="#000" stroke="#000" stroke-width="1"/>
<text x="486.66666666666663" y="330.2207955156895" font-size="10" text-anchor="middle" fill="#000" font-family="Arial, sans-serif">MH-001</text>
<text x="486.66666666666663" y="560" font-size="9" text-anchor="middle" fill="#666" font-family="Arial, sans-serif">120</text>
<circle cx="913.3333333333333" cy="413.6214375336292" r="4" fill="#000" stroke="#000" stroke-width="1"/>
<text x="913.3333333333333" y="403.6214375336292" font-size="10" text-anchor="middle" fill="#000" font-family="Arial, sans-serif">MH-002</text>
<text x="913.3333333333333" y="560" font-size="9" text-anchor="middle" fill="#666" font-family="Arial, sans-serif">240</text>
<circle cx="1340" cy="503.3333333333333" r="4" fill="#000" stroke="#000" stroke-width="1"/>
<text x="1340" y="493.3333333333333" font-size="10" text-anchor="middle" fill="#000" font-family="Arial, sans-serif">OUT-001</text>
<text x="1340" y="560" font-size="9" text-anchor="middle" fill="#666" font-family="Arial, sans-serif">360</text>
<text x="1250" y="60" font-size="12" text-anchor="start" fill="#000" font-family="Arial, sans-serif">Legend:</text>
<line x1="1250" y1="80" x2="1280" y2="80" stroke="#FF9800" stroke-width="2"/>
<text x="1290" y="84" font-size="11" text-anchor="start" fill="#000" font-family="Arial, sans-serif">EGL</text>
<line x1="1250" y1="100" x2="1280" y2="100" stroke="#2196F3" stroke-width="2"/>
<text x="1290" y="104" font-size="11" text-anchor="start" fill="#000" font-family="Arial, sans-serif">HGL</text>
<line x1="1250" y1="120" x2="1280" y2="120" stroke="#8B4513" stroke-width="2"/>
<text x="1290" y="124" font-size="11" text-anchor="start" fill="#000" font-family="Arial, sans-serif">Ground</text>
<line x1="1250" y1="140" x2="1280" y2="140" stroke="#000" stroke-width="3"/>
<text x="1290" y="144" font-size="11" text-anchor="start" fill="#000" font-family="Arial, sans-serif">Pipe Invert</text>
</svg>
